<svg width="24" height="24" viewBox="0 0 24 24" fill="none" xmlns="http://www.w3.org/2000/svg">
<path d="M12 12V18M15 15H9.00001M3.51001 8H20.51V18.26C20.51 18.9867 20.2213 19.6836 19.7075 20.1975C19.1936 20.7113 18.4967 21 17.77 21H6.25001C5.52332 21 4.82639 20.7113 4.31254 20.1975C3.79869 19.6836 3.51001 18.9867 3.51001 18.26V8ZM10.49 3H13.49C14.2857 3 15.0487 3.31607 15.6113 3.87868C16.1739 4.44129 16.49 5.20435 16.49 6V8H7.49001V6C7.49001 5.20435 7.80608 4.44129 8.36869 3.87868C8.9313 3.31607 9.69436 3 10.49 3Z" stroke="white" stroke-linecap="round" stroke-linejoin="round"/>
</svg>
