<svg width="25" height="24" viewBox="0 0 25 24" fill="none" xmlns="http://www.w3.org/2000/svg">
<g clip-path="url(#clip0_58_1039)">
<path d="M7.5 9H0.5M7.5 7H0.5M7.5 11H0.5M14.54 17.03V9.03H19.88C20.2925 9.02147 20.6954 9.15489 21.0212 9.40792C21.3471 9.66096 21.5761 10.0183 21.67 10.42L23.01 17.03H18.91M4.51 17.03H2.51V5.4C2.51 5.02869 2.65751 4.6726 2.92006 4.41005C3.18261 4.1475 3.53869 4 3.90999 4H13.11C13.4813 4 13.8374 4.1475 14.1 4.41005C14.3625 4.6726 14.51 5.02869 14.51 5.4V17.03H8.96999M14.86 17.33C14.86 18.4346 15.7554 19.33 16.86 19.33C17.9646 19.33 18.86 18.4346 18.86 17.33C18.86 16.2254 17.9646 15.33 16.86 15.33C15.7554 15.33 14.86 16.2254 14.86 17.33ZM4.79 17.33C4.79 18.4346 5.68543 19.33 6.79 19.33C7.89457 19.33 8.79 18.4346 8.79 17.33C8.79 16.2254 7.89457 15.33 6.79 15.33C5.68543 15.33 4.79 16.2254 4.79 17.33Z" stroke="#1C1C1E" stroke-linecap="round" stroke-linejoin="round"/>
</g>
<defs>
<clipPath id="clip0_58_1039">
<rect width="24.01" height="24" fill="white" transform="matrix(-1 0 0 1 24.01 0)"/>
</clipPath>
</defs>
</svg>
