<svg width="24" height="24" viewBox="0 0 24 24" fill="none" xmlns="http://www.w3.org/2000/svg">
<path d="M9.4 4H5.46C4.65366 4 4 4.65366 4 5.46V9.4C4 10.2063 4.65366 10.86 5.46 10.86H9.4C10.2063 10.86 10.86 10.2063 10.86 9.4V5.46C10.86 4.65366 10.2063 4 9.4 4Z" stroke="white" stroke-linecap="round" stroke-linejoin="round"/>
<path d="M18.54 4H14.6C13.7937 4 13.14 4.65366 13.14 5.46V9.4C13.14 10.2063 13.7937 10.86 14.6 10.86H18.54C19.3463 10.86 20 10.2063 20 9.4V5.46C20 4.65366 19.3463 4 18.54 4Z" stroke="white" stroke-linecap="round" stroke-linejoin="round"/>
<path d="M9.4 13.14H5.46C4.65366 13.14 4 13.7937 4 14.6V18.54C4 19.3463 4.65366 20 5.46 20H9.4C10.2063 20 10.86 19.3463 10.86 18.54V14.6C10.86 13.7937 10.2063 13.14 9.4 13.14Z" stroke="white" stroke-linecap="round" stroke-linejoin="round"/>
<path d="M18.54 13.14H14.6C13.7937 13.14 13.14 13.7937 13.14 14.6V18.54C13.14 19.3463 13.7937 20 14.6 20H18.54C19.3463 20 20 19.3463 20 18.54V14.6C20 13.7937 19.3463 13.14 18.54 13.14Z" stroke="white" stroke-linecap="round" stroke-linejoin="round"/>
</svg>
