<svg width="24" height="24" viewBox="0 0 24 24" fill="none" xmlns="http://www.w3.org/2000/svg">
<path d="M12 19.8C12 19.8 21 15.49 21 8.94002C20.9922 7.86976 20.6217 6.83378 19.9489 6.00135C19.2762 5.16892 18.341 4.58926 17.2962 4.35709C16.2514 4.12491 15.1587 4.25394 14.1968 4.72309C13.2348 5.19224 12.4603 5.97379 12 6.94002C11.5397 5.97379 10.7652 5.19224 9.80324 4.72309C8.84125 4.25394 7.7486 4.12491 6.7038 4.35709C5.65899 4.58926 4.72381 5.16892 4.05107 6.00135C3.37833 6.83378 3.00779 7.86976 3 8.94002C3 15.49 12 19.8 12 19.8Z" stroke="#1C1C1E" stroke-linecap="round" stroke-linejoin="round"/>
</svg>
