<svg width="24" height="24" viewBox="0 0 24 24" fill="none" xmlns="http://www.w3.org/2000/svg">
<path d="M17.94 10.15H16.11C15.9027 10.1508 15.6977 10.1068 15.5089 10.021C15.3202 9.93527 15.1522 9.80977 15.0164 9.65311C14.8806 9.49645 14.7803 9.31233 14.7222 9.11332C14.6642 8.9143 14.6498 8.7051 14.68 8.5C14.7718 7.92101 14.8219 7.33617 14.83 6.75C14.8427 6.27647 14.712 5.81015 14.455 5.41221C14.1981 5.01426 13.8268 4.70327 13.39 4.52001C13.3164 4.50081 13.2396 4.49682 13.1644 4.50827C13.0892 4.51973 13.0171 4.54639 12.9525 4.58663C12.888 4.62687 12.8323 4.67984 12.7888 4.74231C12.7454 4.80479 12.7152 4.87545 12.7 4.95C12.5835 5.57196 12.3566 6.16804 12.03 6.71001C11.66 7.25001 10.81 8.4 10.13 9.31C9.88066 9.62092 9.66293 9.95591 9.48001 10.31C9.28502 10.7499 8.96908 11.1254 8.56897 11.3927C8.16886 11.6601 7.70105 11.8082 7.22 11.82H3V18.96H9.16C9.16 18.96 10.6 19.48 16.36 19.48H18.23C18.5377 19.48 18.8327 19.3578 19.0502 19.1402C19.2678 18.9227 19.39 18.6277 19.39 18.32C19.39 18.0124 19.2678 17.7173 19.0502 17.4998C18.8327 17.2822 18.5377 17.16 18.23 17.16H19.38C19.6886 17.1574 19.9836 17.0329 20.2009 16.8138C20.4181 16.5947 20.54 16.2986 20.54 15.99C20.54 15.6824 20.4178 15.3873 20.2003 15.1698C19.9827 14.9522 19.6877 14.83 19.38 14.83H19.82C20.1303 14.83 20.4279 14.7067 20.6473 14.4873C20.8667 14.2679 20.99 13.9703 20.99 13.66C20.99 13.3497 20.8667 13.0521 20.6473 12.8327C20.4279 12.6133 20.1303 12.49 19.82 12.49H19.38C19.6877 12.49 19.9827 12.3678 20.2003 12.1502C20.4178 11.9327 20.54 11.6377 20.54 11.33C20.5427 11.176 20.5146 11.023 20.4575 10.8799C20.4004 10.7369 20.3154 10.6066 20.2074 10.4968C20.0994 10.387 19.9706 10.2997 19.8286 10.2402C19.6865 10.1806 19.534 10.15 19.38 10.15H13.81M7.38 11.83V18.97" stroke="#1C1C1E" stroke-linecap="round" stroke-linejoin="round"/>
</svg>
