<svg width="24" height="24" viewBox="0 0 24 24" fill="none" xmlns="http://www.w3.org/2000/svg">
<path d="M3 8.78V6.04998C2.99323 5.64759 3.0675 5.24794 3.21838 4.87484C3.36926 4.50174 3.59367 4.16282 3.87825 3.87825C4.16282 3.59367 4.50176 3.36926 4.87486 3.21838C5.24796 3.0675 5.6476 2.99323 6.05 3H17.95C18.7581 3.00263 19.5323 3.32481 20.1038 3.89622C20.6752 4.46764 20.9974 5.24189 21 6.04998V17.95C21.0068 18.3524 20.9325 18.752 20.7816 19.1251C20.6307 19.4982 20.4063 19.8372 20.1217 20.1217C19.8372 20.4063 19.4982 20.6307 19.1251 20.7816C18.752 20.9325 18.3524 21.0068 17.95 21H6.08999C5.6876 21.0068 5.28795 20.9325 4.91485 20.7816C4.54175 20.6307 4.20283 20.4063 3.91826 20.1217C3.63368 19.8372 3.40926 19.4982 3.25837 19.1251C3.10749 18.752 3.03323 18.3524 3.03999 17.95V15.22M12.4 7.69L17.49 12.06L12.54 16.31M17.49 12.08H6" stroke="white" stroke-opacity="0.34902" stroke-linecap="round" stroke-linejoin="round"/>
</svg>
