<svg width="24" height="24" viewBox="0 0 24 24" fill="none" xmlns="http://www.w3.org/2000/svg">
<path d="M19.59 9.05C19.1816 9.05 18.7899 8.88775 18.5011 8.59895C18.2122 8.31014 18.05 7.91842 18.05 7.50999M18.05 16.57C18.0553 16.165 18.2198 15.7785 18.5081 15.494C18.7963 15.2095 19.185 15.05 19.59 15.05M5.55 9.05C5.95843 9.05 6.35013 8.88775 6.63894 8.59895C6.92775 8.31014 7.09 7.91842 7.09 7.50999M7.09 16.57C7.08474 16.165 6.92017 15.7785 6.63193 15.494C6.34369 15.2095 5.95499 15.05 5.55 15.05M11.17 13.34C11.16 13.6074 11.2303 13.8716 11.3718 14.0986C11.5133 14.3257 11.7195 14.5052 11.9639 14.614C12.2083 14.7229 12.4797 14.7561 12.7431 14.7094C13.0066 14.6626 13.25 14.5381 13.442 14.3518C13.6341 14.1656 13.7659 13.9261 13.8207 13.6642C13.8755 13.4023 13.8506 13.13 13.7492 12.8824C13.6479 12.6348 13.4748 12.4232 13.2521 12.2748C13.0295 12.1265 12.7675 12.0482 12.5 12.05C12.235 12.05 11.9759 11.9714 11.7555 11.8242C11.5352 11.6769 11.3634 11.4676 11.262 11.2228C11.1606 10.9779 11.134 10.7085 11.1857 10.4486C11.2374 10.1886 11.3651 9.94985 11.5525 9.76245C11.7399 9.57505 11.9786 9.44743 12.2386 9.39572C12.4985 9.34402 12.7679 9.37056 13.0128 9.47198C13.2576 9.57341 13.4669 9.74515 13.6142 9.96551C13.7614 10.1859 13.84 10.445 13.84 10.71M12.54 8.62V9.32M12.54 14.68V15.38M21.5 7.5V16.5C21.5 17.6046 20.6046 18.5 19.5 18.5H5.49998C4.39541 18.5 3.49998 17.6046 3.49998 16.5V7.5C3.49998 6.39543 4.39541 5.5 5.49998 5.5H19.5C20.6046 5.5 21.5 6.39543 21.5 7.5Z" stroke="#1C1C1E" stroke-linecap="round" stroke-linejoin="round"/>
</svg>
