<svg width="24" height="24" viewBox="0 0 24 24" fill="none" xmlns="http://www.w3.org/2000/svg">
<path d="M20.1 14.56V18.62L16.9 20.08L13.69 18.62V14.56L16.9 13.1L20.1 14.56ZM13.69 14.56L16.9 16.02M16.9 16.02L20.1 14.56M16.9 16.02V19.88M14.9 21H5.89996C5.36953 21 4.86082 20.7893 4.48575 20.4142C4.11068 20.0391 3.89996 19.5304 3.89996 19V5C3.89996 4.46957 4.11068 3.96087 4.48575 3.5858C4.86082 3.21073 5.36953 3 5.89996 3H14.9C15.4304 3 15.9391 3.21073 16.3142 3.5858C16.6893 3.96087 16.9 4.46957 16.9 5V11.23M6.89997 6.60001H13.9M6.89997 9.85001H13.9M6.89997 13.1H11.31" stroke="white" stroke-linecap="round" stroke-linejoin="round"/>
</svg>
