<svg width="24" height="24" viewBox="0 0 24 24" fill="none" xmlns="http://www.w3.org/2000/svg">
<path d="M15.6243 8.74253C15.6243 8.74253 18.7083 9.52098 19.9781 8.24612C21.248 6.97125 21.5087 4.21845 19.7514 3M10.2502 6.86978L3.71954 13.3682C3.49188 13.588 3.31089 13.8511 3.18729 14.1417C3.06369 14.4324 3 14.7449 3 15.0605C3 15.3762 3.06369 15.6886 3.18729 15.9793C3.31089 16.27 3.49188 16.533 3.71954 16.7528L7.26831 20.2841C7.4892 20.5106 7.75355 20.6907 8.04568 20.8137C8.33782 20.9367 8.65179 21 8.969 21C9.2862 21 9.60018 20.9367 9.89231 20.8137C10.1844 20.6907 10.4488 20.5106 10.6697 20.2841L17.1096 13.8872C17.5506 13.4419 17.7988 12.8426 17.8012 12.2175V7.70467C17.8014 7.4939 17.7588 7.28523 17.6761 7.0912C17.5934 6.89716 17.4722 6.72172 17.3198 6.57533C17.1674 6.42895 16.9869 6.31464 16.7891 6.23923C16.5913 6.16382 16.3803 6.12887 16.1686 6.13646L11.8828 6.28313C11.5853 6.26943 11.288 6.31419 11.0079 6.41486C10.7277 6.51552 10.4703 6.67009 10.2502 6.86978ZM16.1686 8.74253C16.1686 9.19738 15.7981 9.56612 15.3409 9.56612C14.8838 9.56612 14.5133 9.19738 14.5133 8.74253C14.5133 8.28768 14.8838 7.91895 15.3409 7.91895C15.7981 7.91895 16.1686 8.28768 16.1686 8.74253Z" stroke="white" stroke-linecap="round" stroke-linejoin="round"/>
</svg>
